<?xml version="1.0" encoding="UTF-8" standalone="no"?>
<!-- Created with Inkscape (http://www.inkscape.org/) -->

<svg
   xmlns:dc="http://purl.org/dc/elements/1.1/"
   xmlns:cc="http://creativecommons.org/ns#"
   xmlns:rdf="http://www.w3.org/1999/02/22-rdf-syntax-ns#"
   xmlns:svg="http://www.w3.org/2000/svg"
   xmlns="http://www.w3.org/2000/svg"
   xmlns:sodipodi="http://sodipodi.sourceforge.net/DTD/sodipodi-0.dtd"
   xmlns:inkscape="http://www.inkscape.org/namespaces/inkscape"
   width="25"
   height="25"
   id="svg4168"
   version="1.1"
   inkscape:version="0.48.0 r9654"
   sodipodi:docname="New document 6">
  <defs
     id="defs4170" />
  <sodipodi:namedview
     id="base"
     pagecolor="#ffffff"
     bordercolor="#666666"
     borderopacity="1.0"
     inkscape:pageopacity="0.0"
     inkscape:pageshadow="2"
     inkscape:zoom="7.9195959"
     inkscape:cx="3.3184801"
     inkscape:cy="4.5890152"
     inkscape:document-units="px"
     inkscape:current-layer="layer1"
     showgrid="false"
     inkscape:window-width="1920"
     inkscape:window-height="1033"
     inkscape:window-x="-4"
     inkscape:window-y="24"
     inkscape:window-maximized="1" />
  <metadata
     id="metadata4173">
    <rdf:RDF>
      <cc:Work
         rdf:about="">
        <dc:format>image/svg+xml</dc:format>
        <dc:type
           rdf:resource="http://purl.org/dc/dcmitype/StillImage" />
        <dc:title></dc:title>
      </cc:Work>
    </rdf:RDF>
  </metadata>
  <g
     inkscape:label="Layer 1"
     inkscape:groupmode="layer"
     id="layer1"
     transform="translate(0,-1027.3622)">
    <path
       sodipodi:type="arc"
       style="fill:#343434;fill-opacity:1;stroke:none;display:inline"
       id="path3873-3"
       sodipodi:cx="45"
       sodipodi:cy="95"
       sodipodi:rx="15"
       sodipodi:ry="15"
       d="m 60,95 a 15,15 0 1 1 -30,0 15,15 0 1 1 30,0 z"
       transform="matrix(0,-0.70091786,0.70091786,0,-54.087197,1071.4035)" />
    <path
       style="font-size:medium;font-style:normal;font-variant:normal;font-weight:normal;font-stretch:normal;text-indent:0;text-align:start;text-decoration:none;line-height:normal;letter-spacing:normal;word-spacing:normal;text-transform:none;direction:ltr;block-progression:tb;writing-mode:lr-tb;text-anchor:start;baseline-shift:baseline;color:#000000;fill:#ffffff;fill-opacity:1;stroke:none;stroke-width:7;marker:none;visibility:visible;display:inline;overflow:visible;enable-background:accumulate;font-family:Sans;-inkscape-font-specification:Sans"
       d="m 16.078194,1043.0102 a 0.66655837,0.66655837 0 0 1 -0.19638,0.4582 l -1.34488,1.3449 a 0.66655837,0.66655837 0 0 1 -0.94023,0 l -3.8085296,-3.8085 -0.67243,-0.6725 a 0.66655837,0.66655837 0 0 1 0,-0.9402 l 0.67243,-0.6724 3.8085296,-3.8086 a 0.66655837,0.66655837 0 0 1 0.94023,0 l 1.34488,1.3449 a 0.66655837,0.66655837 0 0 1 0,0.9403 l -2.66596,2.6659 2.66596,2.666 a 0.66655837,0.66655837 0 0 1 0.19638,0.482 z"
       id="path3885-2"
       inkscape:connector-curvature="0" />
  </g>
</svg>
