<?xml version="1.0" encoding="UTF-8" standalone="no"?>
<!-- Created with Inkscape (http://www.inkscape.org/) -->

<svg
   xmlns:dc="http://purl.org/dc/elements/1.1/"
   xmlns:cc="http://creativecommons.org/ns#"
   xmlns:rdf="http://www.w3.org/1999/02/22-rdf-syntax-ns#"
   xmlns:svg="http://www.w3.org/2000/svg"
   xmlns="http://www.w3.org/2000/svg"
   version="1.1"
   width="30"
   height="30"
   id="svg3162">
  <defs
     id="defs3164" />
  <metadata
     id="metadata3167">
    <rdf:RDF>
      <cc:Work
         rdf:about="">
        <dc:format>image/svg+xml</dc:format>
        <dc:type
           rdf:resource="http://purl.org/dc/dcmitype/StillImage" />
        <dc:title></dc:title>
      </cc:Work>
    </rdf:RDF>
  </metadata>
  <path
     d="m 25,15.766447 a 10,10.766447 0 1 1 -20,0 10,10.766447 0 1 1 20,0 z"
     id="path3754"
     style="fill:#343434;fill-opacity:1;fill-rule:nonzero;stroke:none" />
  <g
     transform="translate(0,-1022.3622)"
     id="layer1"
     style="fill:#f2f2f2;fill-opacity:1;fill-rule:nonzero">
    <path
       d="m 15.000002,1022.3622 c -8.28427,0 -15,6.7157 -15,15 0,8.2843 6.71573,15 15,15 8.28427,0 14.999996,-6.7157 14.999996,-15 0,-8.2843 -6.715726,-15 -14.999996,-15 z m -4.21875,7.75 c 1.66836,0 3,1.3629 3,3.0312 0,1.6684 -1.33164,3 -3,3 -1.66836,0 -3.03125,-1.3316 -3.03125,-3 0,-1.6683 1.36289,-3.0312 3.03125,-3.0312 z m 8.4375,0 c 1.66836,0 3.03125,1.3629 3.03125,3.0312 0,1.6684 -1.36289,3 -3.03125,3 -1.66836,0 -3,-1.3316 -3,-3 0,-1.6683 1.33164,-3.0312 3,-3.0312 z m -8.4375,8.4687 c 1.66836,0 3,1.3317 3,3 0,1.6684 -1.33164,3.0313 -3,3.0313 -1.66836,0 -3.03125,-1.3629 -3.03125,-3.0313 0,-1.6683 1.36289,-3 3.03125,-3 z m 8.4375,0 c 1.66836,0 3.03125,1.3317 3.03125,3 0,1.6684 -1.36289,3.0313 -3.03125,3.0313 -1.66836,0 -3,-1.3629 -3,-3.0313 0,-1.6683 1.33164,-3 3,-3 z"
       id="path3218"
       style="fill:#f2f2f2;fill-opacity:1;fill-rule:nonzero;stroke:none;display:inline" />
  </g>
</svg>
