<?xml version="1.0" encoding="UTF-8" standalone="no"?>
<!-- Created with Inkscape (http://www.inkscape.org/) -->

<svg
   xmlns:dc="http://purl.org/dc/elements/1.1/"
   xmlns:cc="http://creativecommons.org/ns#"
   xmlns:rdf="http://www.w3.org/1999/02/22-rdf-syntax-ns#"
   xmlns:svg="http://www.w3.org/2000/svg"
   xmlns="http://www.w3.org/2000/svg"
   version="1.1"
   width="60"
   height="60"
   id="svg3162">
  <defs
     id="defs3164" />
  <metadata
     id="metadata3167">
    <rdf:RDF>
      <cc:Work
         rdf:about="">
        <dc:format>image/svg+xml</dc:format>
        <dc:type
           rdf:resource="http://purl.org/dc/dcmitype/StillImage" />
        <dc:title></dc:title>
      </cc:Work>
    </rdf:RDF>
  </metadata>
  <g
     transform="translate(0,-992.36218)"
     id="layer1">
    <path
       d="m 30,992.36218 c -16.56854,0 -30,13.43142 -30,30.00002 0,16.5685 13.43146,30 30,30 16.56854,0 30,-13.4315 30,-30 0,-16.5686 -13.43146,-30.00002 -30,-30.00002 z m -1.40625,15.06252 c 3.27081,-0.012 6.23353,3.015 6.125,6.3125 0.0708,2.9628 -2.23955,5.6622 -5.125,6.2187 -1.77393,0.4863 -3.5865,0.9064 -5.34375,1.4063 -0.29265,0.6754 0.26576,1.4047 0.34375,2.0937 0.50565,1.8201 0.9839,3.653 1.5,5.4688 0.79244,0.4886 0.74037,-0.9063 1,-1.375 0.40544,-1.1729 0.67086,-2.3934 1.15625,-3.5313 0.85769,-0.5127 1.92881,-0.5987 2.875,-0.9375 0.86332,-0.5077 1.2199,0.4499 1.28125,1.1563 0.47933,1.6052 0.93235,3.2059 1.40625,4.8125 0.89252,0.4441 0.74478,-1.447 1.09375,-2 1.28616,-4.5558 2.50933,-9.1408 3.8125,-13.6875 0.46368,-0.7788 1.52536,-0.6575 2.28125,-0.9688 0.74841,-0.1763 1.46671,-0.4776 2.21875,-0.5937 0.6395,0.4602 -0.15046,1.3622 -0.15625,2 -2.12236,7.7628 -4.28855,15.4941 -6.4375,23.25 -0.8023,0.4323 -1.88998,0.1268 -2.8125,0.2187 -0.49594,-0.088 -1.25494,0.248 -1.46875,-0.375 -0.65375,-2.137 -1.22536,-4.3238 -1.9375,-6.4375 -0.82346,-0.1606 -0.66132,1.3081 -1,1.875 -0.46919,1.5689 -0.87235,3.1303 -1.375,4.6875 -0.42868,0.4347 -1.13584,0.1597 -1.6875,0.25 -0.78026,-0.014 -1.57027,0.015 -2.34375,-0.031 -0.56786,-0.6927 -0.52933,-1.7838 -0.875,-2.625 -2.21767,-7.9811 -4.38579,-15.9524 -6.59375,-23.9375 0.33413,-0.8303 1.74591,-0.6235 2.53125,-1 2.96684,-0.7104 5.89186,-1.5551 8.875,-2.1875 0.22012,-0.029 0.43819,-0.062 0.65625,-0.062 z m -0.4375,4.125 c -2.08336,0.4969 -4.1492,1.0437 -6.21875,1.5937 -0.1506,0.9112 0.4516,1.8783 0.59375,2.8125 0.19897,0.3607 0.0688,1.1632 0.625,1.1563 2.05435,-0.5465 4.12546,-1.0074 6.15625,-1.625 1.75346,-0.9641 0.85018,-4.1621 -1.15625,-3.9375 z"
       id="svg-logo"
       style="fill:#343434;fill-opacity:1;stroke:none;display:inline" />
  </g>
</svg>
