<?xml version="1.0" encoding="UTF-8" standalone="no"?>
<!-- Created with Inkscape (http://www.inkscape.org/) -->

<svg
   xmlns:dc="http://purl.org/dc/elements/1.1/"
   xmlns:cc="http://creativecommons.org/ns#"
   xmlns:rdf="http://www.w3.org/1999/02/22-rdf-syntax-ns#"
   xmlns:svg="http://www.w3.org/2000/svg"
   xmlns="http://www.w3.org/2000/svg"
   xmlns:sodipodi="http://sodipodi.sourceforge.net/DTD/sodipodi-0.dtd"
   xmlns:inkscape="http://www.inkscape.org/namespaces/inkscape"
   version="1.1"
   width="20"
   height="20"
   id="svg3991"
   inkscape:version="0.48.0 r9654"
   sodipodi:docname="see.svg">
  <sodipodi:namedview
     pagecolor="#ffffff"
     bordercolor="#666666"
     borderopacity="1"
     objecttolerance="10"
     gridtolerance="10"
     guidetolerance="10"
     inkscape:pageopacity="0"
     inkscape:pageshadow="2"
     inkscape:window-width="1920"
     inkscape:window-height="1033"
     id="namedview8"
     showgrid="true"
     inkscape:zoom="5.2"
     inkscape:cx="-8.4615385"
     inkscape:cy="26.153846"
     inkscape:window-x="0"
     inkscape:window-y="0"
     inkscape:window-maximized="1"
     inkscape:current-layer="svg3991">
    <inkscape:grid
       type="xygrid"
       id="grid2985"
       empspacing="10"
       visible="true"
       enabled="true"
       snapvisiblegridlinesonly="true" />
  </sodipodi:namedview>
  <defs
     id="defs3993" />
  <metadata
     id="metadata3996">
    <rdf:RDF>
      <cc:Work
         rdf:about="">
        <dc:format>image/svg+xml</dc:format>
        <dc:type
           rdf:resource="http://purl.org/dc/dcmitype/StillImage" />
        <dc:title />
      </cc:Work>
    </rdf:RDF>
  </metadata>
  <g
     transform="matrix(0.33333333,0,0,0.33333333,0,-330.7874)"
     id="layer1">
    <path
       d="m 30,1002.3622 c -20,0 -30,20 -30,20 0,0 10,20 30,20 20,0 30,-20 30,-20 0,0 -10,-20 -30,-20 z m 0,5 c 8.28427,0 15,6.7157 15,15 0,8.2842 -6.71573,15 -15,15 -8.28427,0 -15,-6.7158 -15,-15 0,-8.2843 6.71573,-15 15,-15 z"
       id="path3972"
       style="fill:#f2f2f2;fill-opacity:1;stroke:none;display:inline"
       inkscape:connector-curvature="0" />
    <path
       d="m -140,260 a 10,10 0 1 1 -20,0 10,10 0 1 1 20,0 z"
       transform="translate(180,762.36217)"
       id="path3976"
       style="fill:#f2f2f2;fill-opacity:1;stroke:none;display:inline"
       inkscape:connector-curvature="0" />
  </g>
</svg>
